<svg xmlns="http://www.w3.org/2000/svg" width="200.366" height="35.668" viewBox="0 0 200.366 35.668">
  <g id="ai-fest-w" transform="translate(-105 -31.5)">
    <path id="Path_1" data-name="Path 1" d="M10.206,20h3.78L8.883,4.985H5.019L-.084,20H3.7l.9-3.15H9.282ZM6.972,8.408s.336,1.638.609,2.583l.84,2.919H5.46l.861-2.919c.273-.945.609-2.583.609-2.583ZM15.666,20h3.675V4.985H15.666Zm12.012,0h3.675V14.435h4.578v-3.15H31.353V8.135h5.523V4.985h-9.2Zm11.529,0h9.7V16.85H42.882V14.015H47.46v-3.15H42.882V8.135h5.733V4.985H39.207Zm11.235-1.89a7.752,7.752,0,0,0,5.481,2.142c3.381,0,5.292-2.163,5.292-4.662,0-4.746-6.762-4.41-6.762-6.3,0-.84.84-1.176,1.6-1.176a5.73,5.73,0,0,1,3.318,1.323l1.554-3a6.811,6.811,0,0,0-4.83-1.7c-2.982,0-5.313,1.827-5.313,4.6,0,4.62,6.762,4.557,6.762,6.342,0,.9-.819,1.2-1.575,1.2a6.222,6.222,0,0,1-3.591-1.554ZM66.612,20h3.675V8.135h4.557V4.985H62.055v3.15h4.557Zm10.08,0h3.675V4.985H76.692Zm10.626,0H91.14L96.432,4.985H92.5l-2.688,8.547c-.294.945-.567,2.415-.567,2.415h-.042s-.273-1.47-.567-2.415L85.995,4.985H82Zm18.669,0h3.78l-5.1-15.015H100.8L95.7,20h3.78l.9-3.15h4.683ZM102.753,8.408s.336,1.638.609,2.583l.84,2.919h-2.961l.861-2.919c.273-.945.609-2.583.609-2.583ZM111.447,20h9.807V16.85h-6.132V4.985h-3.675Zm16.044,0h10.395V16.85H131.5c.105-1.932,6.153-2.835,6.153-7.518,0-3.192-2.667-4.6-5.124-4.6a5.791,5.791,0,0,0-5.292,3.234l2.73,1.827s.8-1.6,2.226-1.6a1.483,1.483,0,0,1,1.617,1.491c0,2.163-6.489,3.15-6.489,8.694A9.2,9.2,0,0,0,127.491,20Zm18.165.252c4.263,0,5.649-3.486,5.649-7.791s-1.386-7.728-5.649-7.728-5.649,3.423-5.649,7.728S141.393,20.252,145.656,20.252Zm0-3.36c-1.449,0-1.869-1.974-1.869-4.431,0-2.436.42-4.368,1.869-4.368s1.869,1.932,1.869,4.368C147.525,14.918,147.105,16.892,145.656,16.892Zm7.9,3.108h10.4V16.85h-6.384c.105-1.932,6.153-2.835,6.153-7.518,0-3.192-2.667-4.6-5.124-4.6A5.791,5.791,0,0,0,153.3,7.967l2.73,1.827s.8-1.6,2.226-1.6a1.483,1.483,0,0,1,1.617,1.491c0,2.163-6.489,3.15-6.489,8.694A9.2,9.2,0,0,0,153.552,20Zm18.165.252c4.263,0,5.649-3.486,5.649-7.791s-1.386-7.728-5.649-7.728-5.649,3.423-5.649,7.728S167.454,20.252,171.717,20.252Zm0-3.36c-1.449,0-1.869-1.974-1.869-4.431,0-2.436.42-4.368,1.869-4.368s1.869,1.932,1.869,4.368C173.586,14.918,173.166,16.892,171.717,16.892Z" transform="translate(128 29)" fill="#fff"/>
    <path id="Path_2" data-name="Path 2" d="M1.344,0H2.73V-6.412c0-.56-.1-1.442-.1-1.442H2.66s.462.9.826,1.442L7.9,0H9.254V-9.884H7.868v6.426c0,.546.1,1.428.1,1.428H7.938s-.462-.9-.826-1.428l-4.4-6.426H1.344Zm14.8,0h1.386V-9.884H16.142Zm7.616-4.956A4.891,4.891,0,0,0,28.616.168a4.258,4.258,0,0,0,3.038-1.2h.028s-.014.21-.014.42V0h1.218V-4.97h-2.87v1.2h1.61v1.428a4.04,4.04,0,0,1-2.8,1.232,3.635,3.635,0,0,1-3.64-3.878A3.6,3.6,0,0,1,28.91-8.792a4.55,4.55,0,0,1,2.786.966l.7-1.036a5.376,5.376,0,0,0-3.6-1.19A4.98,4.98,0,0,0,23.758-4.956ZM39.256,0h5.978V-1.2H40.642V-4.382h3.542v-1.2H40.642V-8.68H45v-1.2h-5.74ZM51.478,0h1.386V-3.934h2.114L57.064,0h1.568l-2.1-3.836a2.871,2.871,0,0,0-.294-.448v-.028a2.712,2.712,0,0,0,1.778-2.674A2.706,2.706,0,0,0,56.35-9.66,4.993,4.993,0,0,0,54.5-9.884H51.478Zm1.386-5.138V-8.68h1.6a2.723,2.723,0,0,1,1.358.224A1.618,1.618,0,0,1,56.6-6.93a1.644,1.644,0,0,1-1.75,1.792ZM64.652,0h1.386V-9.884H64.652ZM78.82,0h1.442L76.706-9.884H75.25L71.694,0h1.428l.98-2.842h3.724ZM75.992-8.526s.21.9.378,1.4L77.462-3.99h-3l1.106-3.136c.168-.5.392-1.4.392-1.4Z" transform="translate(128 67)" fill="#fff"/>
    <g id="Group_2993" data-name="Group 2993">
      <line id="Line_704" data-name="Line 704" x2="19" transform="translate(105 34)" fill="none" stroke="#fff" stroke-width="5"/>
      <line id="Line_705" data-name="Line 705" x2="19" transform="translate(105 41)" fill="none" stroke="#fff" stroke-width="5"/>
      <line id="Line_706" data-name="Line 706" x2="19" transform="translate(105 48)" fill="none" stroke="#fff" stroke-width="5"/>
    </g>
  </g>
</svg>
