<svg width="24" height="24" viewBox="0 0 24 24" fill="none" xmlns="http://www.w3.org/2000/svg">
<path d="M3.75 3.79688C6.03125 1.51562 8.78125 0.375 12 0.375C15.2188 0.375 17.9531 1.51562 20.2031 3.79688C22.4844 6.04688 23.625 8.78125 23.625 12C23.625 15.2188 22.4844 17.9688 20.2031 20.25C17.9531 22.5 15.2188 23.625 12 23.625C8.78125 23.625 6.03125 22.5 3.75 20.25C1.5 17.9688 0.375 15.2188 0.375 12C0.375 8.78125 1.5 6.04688 3.75 3.79688ZM19.6875 5.71875C19.5 5.96875 19.25 6.25 18.9375 6.5625C18.6562 6.875 18.0625 7.35938 17.1562 8.01562C16.25 8.67188 15.25 9.21875 14.1562 9.65625C14.4375 10.2812 14.7188 10.9375 15 11.625C17.2812 11.3125 19.5938 11.4062 21.9375 11.9062C21.9062 9.59375 21.1562 7.53125 19.6875 5.71875ZM18.5625 4.59375C17.3438 3.5 15.9531 2.76562 14.3906 2.39062C12.8281 1.98437 11.25 1.96875 9.65625 2.34375C11 4.125 12.2344 6.0625 13.3594 8.15625C14.4219 7.78125 15.375 7.29688 16.2188 6.70312C17.0938 6.10937 17.6562 5.67188 17.9062 5.39062C18.1875 5.07812 18.4062 4.8125 18.5625 4.59375ZM7.78125 3.04688C6.84375 3.48437 6 4.04687 5.25 4.73438C4.5 5.42188 3.85938 6.21875 3.32812 7.125C2.82812 8 2.48438 8.95312 2.29688 9.98438C5.23438 10.0156 8.28125 9.60938 11.4375 8.76562C10.3125 6.73438 9.09375 4.82812 7.78125 3.04688ZM2.0625 12C2.0625 14.5625 2.92188 16.7812 4.64062 18.6562C5.17188 17.7188 5.85938 16.8125 6.70312 15.9375C7.54688 15.0625 8.53125 14.2656 9.65625 13.5469C10.7812 12.8281 11.9219 12.3125 13.0781 12C12.8594 11.4375 12.5938 10.875 12.2812 10.3125C8.90625 11.3125 5.5 11.7812 2.0625 11.7188C2.0625 11.8125 2.0625 11.9062 2.0625 12ZM5.90625 19.8281C7.34375 20.9844 8.96875 21.6719 10.7812 21.8906C12.5938 22.1094 14.2969 21.8594 15.8906 21.1406C15.4844 18.7344 14.7812 16.2344 13.7812 13.6406C11.875 14.2656 10.2188 15.1719 8.8125 16.3594C7.4375 17.5156 6.46875 18.6719 5.90625 19.8281ZM17.5312 20.25C19.9375 18.625 21.3594 16.4062 21.7969 13.5938C19.8281 12.9688 17.7656 12.8281 15.6094 13.1719C16.5156 15.6719 17.1562 18.0312 17.5312 20.25Z" fill="#132D7D"/>
</svg>
