<svg xmlns="http://www.w3.org/2000/svg" width="514" height="376.066" viewBox="0 0 514 376.066">
  <g id="about-ai" transform="translate(0)">
    <ellipse id="Ellipse_277" data-name="Ellipse 277" cx="127.934" cy="21.489" rx="127.934" ry="21.489" transform="translate(128.062 331.546)" fill="#dee3f3" opacity="0.5"/>
    <g id="Group_2998" data-name="Group 2998" transform="translate(0 59.187)" opacity="0.45">
      <path id="Path_3140" data-name="Path 3140" d="M536.5,332.707a5.585,5.585,0,0,0,.051.718,5.553,5.553,0,0,1-.051-.718Z" transform="translate(-311.235 -262.477)" fill="#6c63ff"/>
      <path id="Path_3141" data-name="Path 3141" d="M665.418,301.82c.01.064.022.127.029.192C665.44,301.947,665.428,301.884,665.418,301.82Z" transform="translate(-375.726 -247.025)" fill="#6c63ff"/>
      <path id="Path_3142" data-name="Path 3142" d="M665.15,300.546c.018.067.036.134.052.2C665.186,300.68,665.168,300.613,665.15,300.546Z" transform="translate(-375.592 -246.388)" fill="#6c63ff"/>
      <path id="Path_3143" data-name="Path 3143" d="M665.2,335.124c-.025.11-.053.219-.084.327C665.147,335.343,665.175,335.234,665.2,335.124Z" transform="translate(-375.575 -263.686)" fill="#6c63ff"/>
      <path id="Path_3144" data-name="Path 3144" d="M665.411,334.069c-.014.117-.031.234-.053.348C665.38,334.3,665.4,334.186,665.411,334.069Z" transform="translate(-375.696 -263.158)" fill="#6c63ff"/>
      <path id="Path_3145" data-name="Path 3145" d="M541.279,341.69a5.561,5.561,0,0,1-1.184-.832,5.544,5.544,0,0,0,1.184.832Z" transform="translate(-313.032 -266.554)" fill="#6c63ff"/>
      <path id="Path_3146" data-name="Path 3146" d="M539.536,340.278a5.577,5.577,0,0,1-.472-.5A5.548,5.548,0,0,0,539.536,340.278Z" transform="translate(-312.516 -266.014)" fill="#6c63ff"/>
      <path id="Path_3147" data-name="Path 3147" d="M730.013,551.531a5.479,5.479,0,0,0-.235-.643,5.5,5.5,0,0,1,.235.643Z" transform="translate(-407.922 -371.624)" fill="#6c63ff"/>
      <path id="Path_3148" data-name="Path 3148" d="M724.741,545.507a5.567,5.567,0,0,1,.631.385A5.524,5.524,0,0,0,724.741,545.507Z" transform="translate(-405.403 -368.932)" fill="#6c63ff"/>
      <path id="Path_3149" data-name="Path 3149" d="M727.219,547.272a5.561,5.561,0,0,1,.883,1.069A5.557,5.557,0,0,0,727.219,547.272Z" transform="translate(-406.642 -369.815)" fill="#6c63ff"/>
      <path id="Path_3150" data-name="Path 3150" d="M726.041,546.305a5.573,5.573,0,0,1,.525.426A5.546,5.546,0,0,0,726.041,546.305Z" transform="translate(-406.053 -369.331)" fill="#6c63ff"/>
      <path id="Path_3151" data-name="Path 3151" d="M729.4,550.167a5.521,5.521,0,0,0-.277-.522A5.5,5.5,0,0,1,729.4,550.167Z" transform="translate(-407.597 -371.002)" fill="#6c63ff"/>
      <path id="Path_3152" data-name="Path 3152" d="M730.435,552.992a5.5,5.5,0,0,0-.118-.547A5.5,5.5,0,0,1,730.435,552.992Z" transform="translate(-408.193 -372.403)" fill="#6c63ff"/>
      <path id="Path_3153" data-name="Path 3153" d="M864.774,342.451h-31.81a5.526,5.526,0,0,0,2.38-4.544V323.3a5.534,5.534,0,0,0-5.534-5.534H793.2a5.535,5.535,0,0,0,3.852-5.272v-14.6a5.525,5.525,0,0,0-2.38-4.544H829.81a5.534,5.534,0,0,0,5.534-5.534v-14.6a5.534,5.534,0,0,0-5.534-5.534H790.692a5.535,5.535,0,0,0,3.852-5.272V247.8a5.525,5.525,0,0,0-2.38-4.544H829.81a5.534,5.534,0,0,0,5.534-5.534v-14.6a5.534,5.534,0,0,0-5.534-5.534H810.1a5.535,5.535,0,0,0,3.852-5.272v-14.6a5.534,5.534,0,0,0-5.534-5.534H755a5.534,5.534,0,0,0-5.534,5.534,5.534,5.534,0,0,0-5.535-5.534H690.5a5.53,5.53,0,0,0-5.015,3.2,5.549,5.549,0,0,1,.107,1.078v14.6a5.5,5.5,0,0,1-.518,2.326A5.523,5.523,0,0,0,687,216.594h13.721a5.51,5.51,0,0,1,3.5,1.252h5.982a5.536,5.536,0,0,0-3.852,5.272,5.543,5.543,0,0,0-.1-1.049c0,.02,0,.039,0,.058v14.6a5.523,5.523,0,0,1-.18,1.38,2.015,2.015,0,0,1,.237.305,5.575,5.575,0,0,0,.043-.7,5.5,5.5,0,0,0,.093.956,1.632,1.632,0,0,1,.124.554,5.543,5.543,0,0,0,2.163,3.034h-4.76c.043-.03.08-.065.122-.1-.442.011-.887-.037-1.33-.042a1.23,1.23,0,0,1-.46-.1,5.529,5.529,0,0,1-1.587.234l-32.786.99a5.525,5.525,0,0,0-2.38,4.544v14.6a5.535,5.535,0,0,0,3.851,5.272l31.314.263a5.531,5.531,0,0,1,1.624.243,6.052,6.052,0,0,1,1.034.182c.026-.006.052-.008.078-.013a5.5,5.5,0,0,0-.955-.412h7.7a5.535,5.535,0,0,0-3.852,5.272,5.554,5.554,0,0,0-.084-.957,1.227,1.227,0,0,1-.122.149,5.556,5.556,0,0,1,.106,1.071v14.6c0,.678.1.515.1-.262a5.525,5.525,0,0,0,2.38,4.544l19.536.626a5.51,5.51,0,0,1,1.96.364h4.7a5.557,5.557,0,0,0-1.913,2.34,5.5,5.5,0,0,1,.785,2.831v14.6a5.511,5.511,0,0,1-.465,2.216,5.548,5.548,0,0,0,3.064,2.43h-5.133a5.5,5.5,0,0,1-3,.888h-19.38a5.523,5.523,0,0,0-2.536,4.646c0-1.95-.727,17.269-.727,17.269,0,1.726,30.156,2.5,30.156,2.5a5.51,5.51,0,0,1,2.226.469,3.872,3.872,0,0,1,.958-.083l-.029-.023h4.76a5.525,5.525,0,0,0-2.38,4.544,5.544,5.544,0,0,0-.061-.789c-.026.06-.053.119-.083.176a5.535,5.535,0,0,1,.144,1.239v13.977a5.534,5.534,0,0,0,5.534,5.534h-8.518a5.505,5.505,0,0,1-2.551.626H701.1a5.53,5.53,0,0,0-2.983,4.908v14.6a5.534,5.534,0,0,0,5.534,5.534h53.425a5.534,5.534,0,0,0,5.534-5.534,5.534,5.534,0,0,0,5.534,5.534H821.57a5.534,5.534,0,0,0,5.534-5.534v-14.6a5.534,5.534,0,0,0-5.534-5.534h43.2a5.534,5.534,0,0,0,5.534-5.534v-14.6a5.534,5.534,0,0,0-5.534-5.534ZM732.43,243.256a5.525,5.525,0,0,0-2.38,4.544,5.525,5.525,0,0,0-2.38-4.544Zm-6.232,24.42a5.535,5.535,0,0,0,3.852-5.272,5.535,5.535,0,0,0,3.851,5.272Zm19.411-50.092a5.535,5.535,0,0,0,3.852-5.272,5.535,5.535,0,0,0,3.851,5.272Zm17,156.073a5.534,5.534,0,0,0-5.534-5.534h11.069a5.534,5.534,0,0,0-5.534,5.534Zm5.86-31.207a5.525,5.525,0,0,0,2.38-4.544,5.525,5.525,0,0,0,2.38,4.544Zm2.38-19.148A5.535,5.535,0,0,0,767,318.031h7.7A5.535,5.535,0,0,0,770.851,323.3Zm-2.38-30.944a5.525,5.525,0,0,0,2.38-4.544,5.525,5.525,0,0,0,2.38,4.544Zm2.38-19.148A5.535,5.535,0,0,0,767,267.939h7.7a5.536,5.536,0,0,0-3.852,5.272Zm-2.38-30.944a5.525,5.525,0,0,0,2.38-4.544,5.525,5.525,0,0,0,2.38,4.544Zm2.38-19.148A5.535,5.535,0,0,0,767,217.846h7.7a5.536,5.536,0,0,0-3.852,5.272Zm37.344,120.322a5.525,5.525,0,0,0-2.38,4.544,5.525,5.525,0,0,0-2.38-4.544Zm-7.914,24.682a5.534,5.534,0,0,0,5.534-5.534,5.534,5.534,0,0,0,5.534,5.534Z" transform="translate(-375.795 -192.174)" fill="#0f3cc4"/>
      <path id="Path_3154" data-name="Path 3154" d="M747.2,483.79" transform="translate(-416.638 -338.057)" fill="#6c63ff"/>
      <path id="Path_3155" data-name="Path 3155" d="M730.66,554.623a5.564,5.564,0,0,0-.05-.7A5.542,5.542,0,0,1,730.66,554.623Z" transform="translate(-408.339 -373.139)" fill="#6c63ff"/>
      <path id="Path_3156" data-name="Path 3156" d="M665.53,332.707c0,.175-.01.348-.026.519C665.52,333.055,665.53,332.882,665.53,332.707Z" transform="translate(-375.769 -262.477)" fill="#6c63ff"/>
      <path id="Path_3157" data-name="Path 3157" d="M536.63,334.358a5.479,5.479,0,0,0,.141.658A5.467,5.467,0,0,1,536.63,334.358Z" transform="translate(-311.299 -263.303)" fill="#6c63ff"/>
      <path id="Path_3158" data-name="Path 3158" d="M412.3,398.911a1.261,1.261,0,0,1-.236-.28,1.35,1.35,0,0,1-.157-.462,11.174,11.174,0,0,0,.017,1.138,5.5,5.5,0,0,1,.257,1.636,5.5,5.5,0,0,1,.243-1.592,2.293,2.293,0,0,1-.117-.387C412.3,398.946,412.3,398.929,412.3,398.911Z" transform="translate(-248.9 -295.225)" fill="#6c63ff"/>
      <path id="Path_3159" data-name="Path 3159" d="M356.7,192.174H303.272a5.534,5.534,0,0,0-5.534,5.534,5.534,5.534,0,0,0-5.534-5.534H238.779a5.534,5.534,0,0,0-5.534,5.534v14.6a5.535,5.535,0,0,0,3.851,5.272H195.674a5.534,5.534,0,0,0-5.534,5.534v14.6a5.525,5.525,0,0,0,2.38,4.544H154.874a5.534,5.534,0,0,0-5.534,5.534v14.6a5.534,5.534,0,0,0,5.534,5.534h39.118a5.536,5.536,0,0,0-3.852,5.272v14.6a5.525,5.525,0,0,0,2.38,4.544H157.379a5.534,5.534,0,0,0-5.534,5.534v14.6a5.534,5.534,0,0,0,5.534,5.534h36.613a5.535,5.535,0,0,0-3.852,5.272v14.6a5.534,5.534,0,0,0,5.534,5.534h31.81a5.525,5.525,0,0,0-2.38,4.544v14.6a5.534,5.534,0,0,0,5.534,5.534h-43.2a5.534,5.534,0,0,0-5.534,5.534v14.6a5.534,5.534,0,0,0,5.534,5.534h53.425a5.534,5.534,0,0,0,5.534-5.534,5.534,5.534,0,0,0,5.534,5.534h53.425a5.534,5.534,0,0,0,5.534-5.534v-14.6a5.53,5.53,0,0,0-2.983-4.908h-11.52a5.505,5.505,0,0,1-2.551-.626h-9.77a5.534,5.534,0,0,0,5.534-5.534c0,2.408,1.252-13.978,1.252-13.978a5.534,5.534,0,0,1,5.534-5.534l20.363-.626a5.571,5.571,0,0,0,1.467-1.514,5.5,5.5,0,0,1-.439-2.142v-14.6a5.506,5.506,0,0,1,.915-3.045,5.551,5.551,0,0,0-2.1-2.489H287.619a5.5,5.5,0,0,1-3-.888H276.98a5.535,5.535,0,0,0,3.852-5.272l-.2-14.5c0-.653-.035-1.231-.061-1.743a5.544,5.544,0,0,0-2.123-2.908h4.76c-.036.025-.068.055-.1.081,2.7-.155,33.52-1.963,36.026-3.979a4.347,4.347,0,0,1-.037-1.158,5.549,5.549,0,0,1-.071-.841v-14.6c0-.181.01-.36.027-.537a5.541,5.541,0,0,0-3.779-4.371h6.735a5.505,5.505,0,0,1,2.551-.626h15.276a5.529,5.529,0,0,0,2.983-4.908V247.8a5.525,5.525,0,0,0-2.38-4.544l-15.88-.99c-2.691,0-4.471-.986-3.054,0h-4.76a5.524,5.524,0,0,0,2.378-4.511,5.558,5.558,0,0,1-.1-1.023v-14.6c0-.012,0-.024,0-.035a5.54,5.54,0,0,0-3.754-4.247h5.781a5.51,5.51,0,0,1,3.505-1.252H360.2a5.517,5.517,0,0,0,2.034-4.282v-14.6a5.534,5.534,0,0,0-5.534-5.534ZM216.213,243.256a5.525,5.525,0,0,0-2.38,4.544,5.525,5.525,0,0,0-2.38-4.544Zm-2.38,19.148a5.535,5.535,0,0,0,3.851,5.272h-7.7A5.535,5.535,0,0,0,213.834,262.4Zm4.884,30.944a5.525,5.525,0,0,0-2.38,4.544,5.525,5.525,0,0,0-2.38-4.544Zm-6.232,24.42a5.535,5.535,0,0,0,3.852-5.272,5.535,5.535,0,0,0,3.851,5.272Zm68.221-74.512a5.525,5.525,0,0,0-2.38,4.544,5.525,5.525,0,0,0-2.38-4.544Zm-34.314,130.4a5.534,5.534,0,0,0-5.534-5.534h11.069a5.534,5.534,0,0,0-5.534,5.534Zm5.86-31.207a5.525,5.525,0,0,0,2.38-4.544,5.525,5.525,0,0,0,2.38,4.544Zm2.38-19.148a5.535,5.535,0,0,0-3.851-5.272h7.7a5.535,5.535,0,0,0-3.852,5.272Zm-2.38-30.944a5.525,5.525,0,0,0,2.38-4.544,5.525,5.525,0,0,0,2.38,4.544Zm2.38-19.148a5.535,5.535,0,0,0-3.851-5.272h7.7a5.535,5.535,0,0,0-3.852,5.272Zm-2.38-30.944a5.525,5.525,0,0,0,2.38-4.544,5.525,5.525,0,0,0,2.38,4.544Zm2.38-19.148a5.535,5.535,0,0,0-3.851-5.272h7.7A5.535,5.535,0,0,0,254.634,223.118Zm19.841,44.558a5.535,5.535,0,0,0,3.852-5.272,5.535,5.535,0,0,0,3.851,5.272Zm19.411-50.092a5.535,5.535,0,0,0,3.852-5.272,5.535,5.535,0,0,0,3.851,5.272Z" transform="translate(-117.553 -192.174)" fill="#8ea2e0"/>
      <path id="Path_3160" data-name="Path 3160" d="M540.143,295.221l.079-.071Z" transform="translate(-313.056 -243.689)" fill="#6c63ff"/>
      <path id="Path_3161" data-name="Path 3161" d="M539.326,296.027c-.027.03-.055.059-.081.09C539.271,296.086,539.3,296.056,539.326,296.027Z" transform="translate(-312.606 -244.127)" fill="#6c63ff"/>
      <path id="Path_3162" data-name="Path 3162" d="M538.478,297.127c.013-.018.027-.035.04-.053C538.5,297.092,538.491,297.109,538.478,297.127Z" transform="translate(-312.223 -244.651)" fill="#6c63ff"/>
      <path id="Path_3163" data-name="Path 3163" d="M536.979,335.9a5.493,5.493,0,0,0,.232.633,5.48,5.48,0,0,1-.231-.633Z" transform="translate(-311.473 -264.074)" fill="#6c63ff"/>
      <path id="Path_3164" data-name="Path 3164" d="M538.16,338.53a5.533,5.533,0,0,0,.409.57A5.533,5.533,0,0,1,538.16,338.53Z" transform="translate(-312.064 -265.39)" fill="#6c63ff"/>
      <path id="Path_3165" data-name="Path 3165" d="M537.5,337.283a5.5,5.5,0,0,0,.328.618,5.5,5.5,0,0,1-.328-.618Z" transform="translate(-311.733 -264.766)" fill="#6c63ff"/>
      <path id="Path_3166" data-name="Path 3166" d="M536.806,300.747c.016-.068.033-.135.052-.2C536.839,300.613,536.821,300.68,536.806,300.747Z" transform="translate(-311.386 -246.388)" fill="#6c63ff"/>
      <path id="Path_3167" data-name="Path 3167" d="M537.18,299.536c.02-.055.039-.111.06-.165C537.218,299.425,537.2,299.481,537.18,299.536Z" transform="translate(-311.574 -245.8)" fill="#6c63ff"/>
      <path id="Path_3168" data-name="Path 3168" d="M536.582,302.012c.008-.065.02-.128.029-.192C536.6,301.884,536.59,301.947,536.582,302.012Z" transform="translate(-311.275 -247.025)" fill="#6c63ff"/>
      <path id="Path_3169" data-name="Path 3169" d="M537.79,298.289l.009-.02Z" transform="translate(-311.879 -245.249)" fill="#6c63ff"/>
      <rect id="Rectangle_547" data-name="Rectangle 547" width="64.494" height="25.672" rx="8.839" transform="translate(180.811 25.672) rotate(180)" fill="#01112c" opacity="0.1"/>
      <rect id="Rectangle_548" data-name="Rectangle 548" width="64.494" height="25.672" rx="8.839" transform="translate(373.666 25.672) rotate(180)" fill="#01112c" opacity="0.1"/>
      <rect id="Rectangle_549" data-name="Rectangle 549" width="64.494" height="25.672" rx="8.839" transform="translate(459.449 50.718) rotate(180)" fill="#01112c" opacity="0.1"/>
      <rect id="Rectangle_550" data-name="Rectangle 550" width="64.494" height="25.672" rx="8.839" transform="translate(354.255 75.765) rotate(180)" fill="#01112c" opacity="0.1"/>
      <rect id="Rectangle_551" data-name="Rectangle 551" width="64.494" height="25.672" rx="8.839" transform="translate(459.449 101.437) rotate(180)" fill="#01112c" opacity="0.1"/>
      <rect id="Rectangle_552" data-name="Rectangle 552" width="64.494" height="25.672" rx="8.839" transform="translate(459.449 151.529) rotate(180)" fill="#01112c" opacity="0.1"/>
      <path id="Path_3170" data-name="Path 3170" d="M877.628,494.136H821.193a4.029,4.029,0,0,0-3.866,2.9,2.573,2.573,0,0,1-.046.679,2.857,2.857,0,0,1-.115.386c0,.022,0,.043,0,.064v17.613a4.029,4.029,0,0,0,4.029,4.029h56.435a4.029,4.029,0,0,0,4.029-4.029V498.165A4.029,4.029,0,0,0,877.628,494.136Z" transform="translate(-451.638 -343.233)" fill="#01112c" opacity="0.1"/>
      <rect id="Rectangle_553" data-name="Rectangle 553" width="64.494" height="25.672" rx="8.839" transform="translate(386.815 201.621) rotate(180)" opacity="0.1"/>
      <rect id="Rectangle_554" data-name="Rectangle 554" width="64.494" height="25.672" rx="8.839" transform="translate(201.474 50.718) rotate(180)" fill="#01112c" opacity="0.1"/>
      <rect id="Rectangle_555" data-name="Rectangle 555" width="64.494" height="25.672" rx="8.839" transform="translate(161.4 75.765) rotate(180)" fill="#01112c" opacity="0.1"/>
      <rect id="Rectangle_556" data-name="Rectangle 556" width="64.494" height="25.672" rx="8.839" transform="translate(136.98 101.437) rotate(180)" fill="#01112c" opacity="0.1"/>
      <rect id="Rectangle_557" data-name="Rectangle 557" width="64.494" height="25.672" rx="8.839" transform="translate(163.278 126.483) rotate(180)" fill="#01112c" opacity="0.1"/>
      <rect id="Rectangle_558" data-name="Rectangle 558" width="64.494" height="25.672" rx="8.839" transform="translate(136.98 151.529) rotate(180)" fill="#01112c" opacity="0.1"/>
      <rect id="Rectangle_559" data-name="Rectangle 559" width="64.494" height="25.672" rx="8.839" transform="translate(107.803 176.603) rotate(180)" fill="#132d7c"/>
      <rect id="Rectangle_560" data-name="Rectangle 560" width="64.494" height="25.672" rx="8.839" transform="translate(484.367 126.455) rotate(180)" fill="#132d7c"/>
      <rect id="Rectangle_561" data-name="Rectangle 561" width="64.494" height="25.672" rx="8.839" transform="translate(481.632 75.852) rotate(180)" fill="#132d7c"/>
      <rect id="Rectangle_562" data-name="Rectangle 562" width="64.494" height="25.672" rx="8.839" transform="translate(514 201.221) rotate(180)" fill="#2659f5"/>
      <rect id="Rectangle_563" data-name="Rectangle 563" width="64.494" height="25.672" rx="8.839" transform="translate(64.494 201.677) rotate(180)" fill="#2659f5"/>
      <rect id="Rectangle_564" data-name="Rectangle 564" width="64.494" height="25.672" rx="8.839" transform="translate(73.156 151.073) rotate(180)" fill="#2659f5"/>
      <rect id="Rectangle_565" data-name="Rectangle 565" width="64.494" height="25.672" rx="8.839" transform="translate(73.156 101.381) rotate(180)" fill="#2659f5"/>
      <rect id="Rectangle_566" data-name="Rectangle 566" width="64.494" height="25.672" rx="8.839" transform="translate(75.435 50.778) rotate(180)" fill="#2659f5"/>
      <rect id="Rectangle_567" data-name="Rectangle 567" width="64.494" height="25.672" rx="8.839" transform="translate(75.435 50.778) rotate(180)" fill="#132d7c" opacity="0.1"/>
      <rect id="Rectangle_568" data-name="Rectangle 568" width="64.494" height="25.672" rx="8.839" transform="translate(116.465 25.704) rotate(180)" fill="#2659f5"/>
      <rect id="Rectangle_569" data-name="Rectangle 569" width="64.494" height="25.672" rx="8.839" transform="translate(172.671 176.575) rotate(180)" fill="#01112c" opacity="0.1"/>
      <rect id="Rectangle_570" data-name="Rectangle 570" width="64.494" height="25.672" rx="8.839" transform="translate(128.84 201.621) rotate(180)" fill="#01112c" opacity="0.1"/>
    </g>
    <circle id="Ellipse_278" data-name="Ellipse 278" cx="14.453" cy="14.453" r="14.453" transform="translate(390.506 0)" fill="#132d7c" opacity="0.5"/>
    <path id="Path_3171" data-name="Path 3171" d="M302.563,150.274h-3.439a2.407,2.407,0,1,0,0-4.814H271.272a2.407,2.407,0,1,0,0,4.814h3.439a2.407,2.407,0,1,0,0,4.814H269.9a2.407,2.407,0,1,0,0,4.814h27.853a2.407,2.407,0,1,0,0-4.814h4.814a2.407,2.407,0,0,0,0-4.814Z" transform="translate(-176.659 -109.618)" fill="#dee3f3" opacity="0.5"/>
    <path id="Path_3172" data-name="Path 3172" d="M865.683,95.517h-2.617a1.832,1.832,0,0,0,0-3.664h-21.2a1.832,1.832,0,0,0,0,3.664h2.617a1.832,1.832,0,0,0,0,3.664h-3.664a1.832,1.832,0,1,0,0,3.664h21.2a1.832,1.832,0,1,0,0-3.664h3.664a1.832,1.832,0,0,0,0-3.664Z" transform="translate(-462.557 -82.801)" fill="#dee3f3" opacity="0.5"/>
    <path id="Path_3173" data-name="Path 3173" d="M434.563,82.274h-3.439a2.407,2.407,0,1,0,0-4.814H403.272a2.407,2.407,0,1,0,0,4.814h3.439a2.407,2.407,0,1,0,0,4.814H401.9a2.407,2.407,0,1,0,0,4.814h27.853a2.407,2.407,0,1,0,0-4.814h4.814a2.407,2.407,0,0,0,0-4.814Z" transform="translate(-242.693 -75.601)" fill="#dee3f3" opacity="0.5"/>
    <rect id="Rectangle_571" data-name="Rectangle 571" width="115.945" height="53.771" rx="12.97" transform="translate(188.855 132.302)" fill="#132d7c"/>
    <rect id="Rectangle_572" data-name="Rectangle 572" width="97.461" height="1.008" transform="translate(198.097 177.821)" opacity="0.1"/>
    <rect id="Rectangle_573" data-name="Rectangle 573" width="97.461" height="36.968" transform="translate(198.097 140.704)" opacity="0.3"/>
    <circle id="Ellipse_279" data-name="Ellipse 279" cx="13.443" cy="13.443" r="13.443" transform="translate(207.339 146.517)" opacity="0.1"/>
    <circle id="Ellipse_280" data-name="Ellipse 280" cx="13.443" cy="13.443" r="13.443" transform="translate(259.43 146.517)" opacity="0.1"/>
    <rect id="Rectangle_574" data-name="Rectangle 574" width="20.163" height="11.765" transform="translate(236.744 186.072)" fill="#132d7c"/>
    <rect id="Rectangle_575" data-name="Rectangle 575" width="84.018" height="67.214" transform="translate(204.818 194.476)" fill="#132d7c"/>
    <rect id="Rectangle_576" data-name="Rectangle 576" width="87.379" height="8.402" transform="translate(203.138 275.133)" fill="#132d7c"/>
    <path id="Path_3174" data-name="Path 3174" d="M435.067,595.937v38.648H450.19v-50.41H435.067Z" transform="translate(-217.646 -292.238)" fill="#132d7c"/>
    <path id="Path_3175" data-name="Path 3175" d="M525.853,584.175v50.41h15.123v-50.41Z" transform="translate(-263.062 -292.238)" fill="#132d7c"/>
    <path id="Path_3176" data-name="Path 3176" d="M435.254,493.155V508.7a22.733,22.733,0,0,0-11.171,5.385,26.428,26.428,0,0,0-6.65,9.752,49.539,49.539,0,0,0-3.275,14.886,85.114,85.114,0,0,0,.93,19.97h-16.8a114.706,114.706,0,0,1,.44-24.1,63.964,63.964,0,0,1,5.393-19.1c4.868-10.211,11.792-15.75,17.876-18.759A33.014,33.014,0,0,1,435.254,493.155Z" transform="translate(-241.879 -283.555)" fill="#132d7c"/>
    <rect id="Rectangle_577" data-name="Rectangle 577" width="15.123" height="11.763" transform="translate(217.421 291.936)" opacity="0.3"/>
    <rect id="Rectangle_578" data-name="Rectangle 578" width="15.123" height="15.123" transform="translate(217.421 313.781)" opacity="0.3"/>
    <rect id="Rectangle_579" data-name="Rectangle 579" width="15.123" height="5.041" transform="translate(217.421 337.306)" opacity="0.3"/>
    <rect id="Rectangle_580" data-name="Rectangle 580" width="15.123" height="11.763" transform="translate(262.791 291.936)" opacity="0.3"/>
    <rect id="Rectangle_581" data-name="Rectangle 581" width="15.123" height="15.123" transform="translate(262.791 313.781)" opacity="0.3"/>
    <rect id="Rectangle_582" data-name="Rectangle 582" width="15.123" height="5.041" transform="translate(262.791 337.306)" opacity="0.3"/>
    <path id="Path_3177" data-name="Path 3177" d="M459.407,493.155V508.7a22.733,22.733,0,0,0-11.171,5.385l-2.091-17.355A33.014,33.014,0,0,1,459.407,493.155Z" transform="translate(-266.033 -283.555)" opacity="0.3"/>
    <path id="Path_3178" data-name="Path 3178" d="M418.293,546.188a49.539,49.539,0,0,0-3.275,14.886l-15.434-4.131a63.963,63.963,0,0,1,5.393-19.1Z" transform="translate(-242.74 -305.91)" opacity="0.3"/>
    <path id="Path_3179" data-name="Path 3179" d="M686.605,493.155V508.7a22.733,22.733,0,0,1,11.171,5.385,26.428,26.428,0,0,1,6.65,9.752A49.539,49.539,0,0,1,707.7,538.72a85.119,85.119,0,0,1-.93,19.97h16.8a114.709,114.709,0,0,0-.44-24.1,63.964,63.964,0,0,0-5.393-19.1c-4.868-10.211-11.792-15.75-17.876-18.759A33.014,33.014,0,0,0,686.605,493.155Z" transform="translate(-386.325 -283.555)" fill="#132d7c"/>
    <path id="Path_3180" data-name="Path 3180" d="M686.605,493.155V508.7a22.733,22.733,0,0,1,11.171,5.385l2.091-17.355A33.015,33.015,0,0,0,686.605,493.155Z" transform="translate(-386.325 -283.555)" opacity="0.3"/>
    <path id="Path_3181" data-name="Path 3181" d="M722.267,546.188a49.539,49.539,0,0,1,3.275,14.886l15.434-4.131a63.962,63.962,0,0,0-5.393-19.1Z" transform="translate(-404.165 -305.91)" opacity="0.3"/>
    <rect id="Rectangle_583" data-name="Rectangle 583" width="20.163" height="1.393" transform="translate(236.744 186.072)" fill="#132d7c" opacity="0.1"/>
    <path id="Path_3182" data-name="Path 3182" d="M665.129,486.856V515a5.863,5.863,0,0,1-1.562-3.989V490.841A5.853,5.853,0,0,1,665.129,486.856Z" transform="translate(-374.8 -280.404)" opacity="0.1"/>
    <path id="Path_3183" data-name="Path 3183" d="M494.612,487v21.066a5.857,5.857,0,0,1-1.566,3.564V483.436A5.858,5.858,0,0,1,494.612,487Z" transform="translate(-289.495 -278.694)" opacity="0.1"/>
    <rect id="Rectangle_584" data-name="Rectangle 584" width="75.615" height="0.995" transform="translate(209.02 261.691)" opacity="0.1"/>
    <rect id="Rectangle_585" data-name="Rectangle 585" width="36.967" height="0.772" transform="translate(207.339 283.536)" opacity="0.1"/>
    <rect id="Rectangle_586" data-name="Rectangle 586" width="36.967" height="0.772" transform="translate(247.669 283.536)" opacity="0.1"/>
    <rect id="Rectangle_587" data-name="Rectangle 587" width="5.786" height="49.762" transform="translate(211.462 82.54)" fill="#132d7c"/>
    <rect id="Rectangle_588" data-name="Rectangle 588" width="5.786" height="49.762" transform="translate(277.812 82.54)" fill="#132d7c"/>
    <circle id="Ellipse_281" data-name="Ellipse 281" cx="6.558" cy="6.558" r="6.558" transform="translate(207.605 76.368)" opacity="0.1"/>
    <circle id="Ellipse_282" data-name="Ellipse 282" cx="6.558" cy="6.558" r="6.558" transform="translate(207.605 75.983)" fill="#132d7c"/>
    <circle id="Ellipse_283" data-name="Ellipse 283" cx="6.558" cy="6.558" r="6.558" transform="translate(274.34 76.368)" opacity="0.1"/>
    <circle id="Ellipse_284" data-name="Ellipse 284" cx="6.558" cy="6.558" r="6.558" transform="translate(274.34 75.983)" fill="#132d7c"/>
    <path id="Path_3184" data-name="Path 3184" d="M234.208,543.952s19.19,37.669,3.554,58.281,1.421,76.76,1.421,76.76" transform="translate(-158.486 -308.967)" fill="none" stroke="#fc6681" stroke-miterlimit="10" stroke-width="2"/>
    <path id="Path_3185" data-name="Path 3185" d="M237.962,507.323c0,7.262-5.331,13.149-5.331,13.149s-5.331-5.887-5.331-13.149,5.331-13.149,5.331-13.149S237.962,500.061,237.962,507.323Z" transform="translate(-156.554 -284.065)" fill="#f526a5"/>
    <path id="Path_3186" data-name="Path 3186" d="M247.47,543.952s-19.19,37.669-3.554,58.281-1.421,76.76-1.421,76.76" transform="translate(-161.797 -308.967)" fill="none" stroke="#ffd037" stroke-miterlimit="10" stroke-width="2"/>
    <path id="Path_3187" data-name="Path 3187" d="M245.79,507.323c0,7.262,5.331,13.149,5.331,13.149s5.331-5.887,5.331-13.149-5.331-13.149-5.331-13.149S245.79,500.061,245.79,507.323Z" transform="translate(-165.803 -284.065)" fill="#e8ab4a"/>
    <path id="Path_3188" data-name="Path 3188" d="M269.763,543.952s19.19,37.669,3.554,58.281,1.422,76.76,1.422,76.76" transform="translate(-176.273 -308.967)" fill="none" stroke="#fc6681" stroke-miterlimit="10" stroke-width="2"/>
    <path id="Path_3189" data-name="Path 3189" d="M273.518,507.323c0,7.262-5.331,13.149-5.331,13.149s-5.331-5.887-5.331-13.149,5.331-13.149,5.331-13.149S273.518,500.061,273.518,507.323Z" transform="translate(-174.341 -284.065)" fill="#f526a5"/>
    <path id="Path_3190" data-name="Path 3190" d="M265.239,567.7c-5.035,5.233-12.958,5.78-12.958,5.78s.24-7.938,5.275-13.171,12.958-5.78,12.958-5.78S270.274,562.462,265.239,567.7Z" transform="translate(-169.051 -314.256)" fill="#f526a5"/>
    <path id="Path_3191" data-name="Path 3191" d="M266.239,619.7c-5.035,5.233-12.958,5.78-12.958,5.78s.24-7.938,5.275-13.171,12.958-5.78,12.958-5.78S271.274,614.462,266.239,619.7Z" transform="translate(-169.551 -340.269)" fill="#f526a5"/>
    <path id="Path_3192" data-name="Path 3192" d="M211.919,655.051c4.761,5.484,4.6,13.424,4.6,13.424s-7.885-.951-12.645-6.434-4.6-13.424-4.6-13.424S207.158,649.568,211.919,655.051Z" transform="translate(-142.533 -361.327)" fill="#f526a5"/>
    <path id="Path_3193" data-name="Path 3193" d="M219.5,547.6c6.053,4.012,8.015,11.707,8.015,11.707s-7.852,1.191-13.905-2.82-8.015-11.707-8.015-11.707S213.443,543.593,219.5,547.6Z" transform="translate(-145.694 -309.301)" fill="#f526a5"/>
    <path id="Path_3194" data-name="Path 3194" d="M283.025,543.952s-19.19,37.669-3.554,58.281-1.421,76.76-1.421,76.76" transform="translate(-179.584 -308.967)" fill="none" stroke="#ffd037" stroke-miterlimit="10" stroke-width="2"/>
    <path id="Path_3195" data-name="Path 3195" d="M281.345,507.323c0,7.262,5.331,13.149,5.331,13.149s5.331-5.887,5.331-13.149-5.331-13.149-5.331-13.149S281.345,500.061,281.345,507.323Z" transform="translate(-183.59 -284.065)" fill="#e8ab4a"/>
    <path id="Path_3196" data-name="Path 3196" d="M278.977,576.368c-5.1,5.172-5.432,13.107-5.432,13.107s7.929-.452,13.026-5.624S292,570.744,292,570.744,284.074,571.2,278.977,576.368Z" transform="translate(-179.688 -322.37)" fill="#e8ab4a"/>
    <path id="Path_3197" data-name="Path 3197" d="M298.977,648.368c-5.1,5.172-5.432,13.107-5.432,13.107s7.929-.452,13.026-5.624S312,642.744,312,642.744,304.074,643.2,298.977,648.368Z" transform="translate(-189.693 -358.389)" fill="#e8ab4a"/>
    <path id="Path_3198" data-name="Path 3198" d="M274.99,619.555s11.552-18.208,27.765-18.6" transform="translate(-180.411 -337.484)" fill="none" stroke="#ffd037" stroke-miterlimit="10" stroke-width="2"/>
    <path id="Path_3199" data-name="Path 3199" d="M229.2,597.555s-11.552-18.208-27.765-18.6" transform="translate(-143.613 -326.478)" fill="none" stroke="#fc6681" stroke-miterlimit="10" stroke-width="2"/>
    <path id="Path_3200" data-name="Path 3200" d="M253.99,649.555s11.552-18.208,27.765-18.6" transform="translate(-169.906 -352.492)" fill="none" stroke="#ffd037" stroke-miterlimit="10" stroke-width="2"/>
    <circle id="Ellipse_285" data-name="Ellipse 285" cx="2.998" cy="2.998" r="2.998" transform="translate(118.816 260.333)" fill="#e8ab4a"/>
    <circle id="Ellipse_286" data-name="Ellipse 286" cx="2.998" cy="2.998" r="2.998" transform="translate(55.099 249.588)" fill="#f526a5"/>
    <path id="Path_3201" data-name="Path 3201" d="M243.2,661.555s-11.552-18.208-27.765-18.6" transform="translate(-150.617 -358.495)" fill="none" stroke="#fc6681" stroke-miterlimit="10" stroke-width="2"/>
    <circle id="Ellipse_287" data-name="Ellipse 287" cx="2.998" cy="2.998" r="2.998" transform="translate(62.096 281.572)" fill="#f526a5"/>
    <circle id="Ellipse_288" data-name="Ellipse 288" cx="2.998" cy="2.998" r="2.998" transform="translate(109.071 275.575)" fill="#e8ab4a"/>
    <path id="Path_3202" data-name="Path 3202" d="M289.357,743.034s-27.837-5.567-35.26-12.991-40.828-20.414-44.539-11.135S159.45,759.736,191,765.3s74.232,7.423,83.512,3.712S289.357,743.034,289.357,743.034Z" transform="translate(-132.925 -394.88)" fill="#a8a8a8"/>
    <path id="Path_3203" data-name="Path 3203" d="M191.006,789.036c31.549,5.568,74.232,7.423,83.512,3.712,7.066-2.827,11.977-16.407,13.918-22.728.588.125.928.194.928.194s-5.567,22.27-14.847,25.981-51.963,1.856-83.512-3.712c-9.107-1.607-11.711-5.381-10.73-10.158C181.055,785.442,184.228,787.84,191.006,789.036Z" transform="translate(-132.932 -422.059)" opacity="0.2"/>
    <path id="Path_3204" data-name="Path 3204" d="M982.016,557.26s6.67,8.722-3.078,21.891-17.787,24.286-14.537,32.495c0,0,14.708-24.457,26.68-24.8S995.185,571.968,982.016,557.26Z" transform="translate(-524.928 -315.624)" fill="#f526a5"/>
    <path id="Path_3205" data-name="Path 3205" d="M982.394,557.26A10.807,10.807,0,0,1,983.757,560c11.68,13.724,17.9,26.531,6.675,26.852-10.459.3-23,19-26.01,23.724a10.139,10.139,0,0,0,.356,1.075s14.708-24.457,26.68-24.8S995.563,571.968,982.394,557.26Z" transform="translate(-525.305 -315.624)" opacity="0.1"/>
    <path id="Path_3206" data-name="Path 3206" d="M1023.654,577.538c0,3.07-.345,5.558-.77,5.558s-.77-2.489-.77-5.558.43-1.625.855-1.625S1023.654,574.468,1023.654,577.538Z" transform="translate(-554.167 -324.786)" fill="#e8ab4a"/>
    <path id="Path_3207" data-name="Path 3207" d="M1028.441,584.732c-2.7,1.469-5.045,2.358-5.249,1.984s1.817-1.867,4.512-3.336,1.632-.4,1.836-.027S1031.136,583.263,1028.441,584.732Z" transform="translate(-554.698 -328.315)" fill="#e8ab4a"/>
    <path id="Path_3208" data-name="Path 3208" d="M914.9,557.26s-6.67,8.722,3.078,21.891,17.787,24.286,14.537,32.495c0,0-14.708-24.457-26.68-24.8S901.733,571.968,914.9,557.26Z" transform="translate(-493.044 -315.624)" fill="#f526a5"/>
    <path id="Path_3209" data-name="Path 3209" d="M914.9,557.26A10.8,10.8,0,0,0,913.539,560c-11.681,13.724-17.9,26.531-6.675,26.852,10.459.3,23,19,26.009,23.724a10.111,10.111,0,0,1-.356,1.075s-14.708-24.457-26.68-24.8S901.733,571.968,914.9,557.26Z" transform="translate(-493.044 -315.624)" opacity="0.1"/>
    <path id="Path_3210" data-name="Path 3210" d="M905.074,577.538c0,3.07.345,5.558.77,5.558s.77-2.489.77-5.558-.43-1.625-.855-1.625S905.074,574.468,905.074,577.538Z" transform="translate(-495.616 -324.786)" fill="#e8ab4a"/>
    <path id="Path_3211" data-name="Path 3211" d="M894.918,584.732c2.7,1.469,5.045,2.358,5.249,1.984s-1.817-1.867-4.512-3.336-1.632-.4-1.836-.027S892.223,583.263,894.918,584.732Z" transform="translate(-489.715 -328.315)" fill="#e8ab4a"/>
    <path id="Path_3212" data-name="Path 3212" d="M909.324,653.717s18.648-.574,24.269-4.576,28.686-8.781,30.08-2.362S991.7,678.7,970.644,678.87s-48.92-3.28-54.529-6.7S909.324,653.717,909.324,653.717Z" transform="translate(-497.742 -358.837)" fill="#a8a8a8"/>
    <path id="Path_3213" data-name="Path 3213" d="M971.02,686.7c-21.054.17-48.92-3.279-54.529-6.7-4.272-2.6-5.974-11.939-6.544-16.247-.394.017-.623.024-.623.024s1.181,15.04,6.79,18.457,33.475,6.866,54.529,6.7c6.077-.049,8.177-2.211,8.061-5.414C977.861,685.454,975.543,686.662,971.02,686.7Z" transform="translate(-497.742 -368.9)" opacity="0.2"/>
  </g>
</svg>
